<svg xmlns="http://www.w3.org/2000/svg" version="1.1" xmlns:xlink="http://www.w3.org/1999/xlink" xmlns:svgjs="http://svgjs.dev/svgjs" width="1500" height="1781" viewBox="0 0 1500 1781"><g transform="matrix(1,0,0,1,-0.04202591824434876,0.7210526315789139)"><svg viewBox="0 0 208 247" data-background-color="#ffffff" preserveAspectRatio="xMidYMid meet" height="1781" width="1500" xmlns="http://www.w3.org/2000/svg" xmlns:xlink="http://www.w3.org/1999/xlink"><g id="tight-bounds" transform="matrix(1,0,0,1,0.005827593996542646,-0.09999999999999432)"><svg viewBox="0 0 207.98834481200691 247.2" height="247.2" width="207.98834481200691"><g><svg viewBox="0 0 397.4975999999999 472.4370820336826" height="247.2" width="207.98834481200691"><g><rect width="397.4975999999999" height="10.067694049858064" x="0" y="250.54651130522728" fill="#252422" opacity="1" stroke-width="0" stroke="transparent" fill-opacity="1" class="rect-qz-0" data-fill-palette-color="primary" rx="1%" id="qz-0" data-palette-color="#252422"></rect></g><g><rect width="397.4975999999999" height="10.067694049858064" x="0" y="273.79181536798853" fill="#252422" opacity="1" stroke-width="0" stroke="transparent" fill-opacity="1" class="rect-qz-1" data-fill-palette-color="primary" rx="1%" id="qz-1" data-palette-color="#252422"></rect></g><g transform="matrix(1,0,0,1,0.9887999999999693,310.214729443653)"><svg viewBox="0 0 395.52 162.22235259002954" height="162.22235259002954" width="395.52"><g id="textblocktransform"><svg viewBox="0 0 395.52 162.22235259002954" height="162.22235259002954" width="395.52" id="textblock"><g><svg viewBox="0 0 395.52 111.63870967741934" height="111.63870967741934" width="395.52"><g transform="matrix(1,0,0,1,0,0)"><svg width="395.52" viewBox="1.55 -32.75 117.79 33.25" height="111.63870967741934" data-palette-color="#252422"><path d="M5.1-19.85L5.35-23Q7.45-23 9.55-22.63 11.65-22.25 13.4-21.33 15.15-20.4 16.2-18.68 17.25-16.95 17.25-14.25L17.25-14.25 17.25-4.25 18.6-1.95Q16.3-0.65 14.03-0.08 11.75 0.5 9.85 0.5L9.85 0.5Q7.4 0.5 5.9-0.13 4.4-0.75 3.55-1.55L3.55-1.55Q2.75-2.4 2.15-3.68 1.55-4.95 1.55-6.55L1.55-6.55Q1.55-9.05 2.6-10.68 3.65-12.3 5.43-13.2 7.2-14.1 9.43-14.48 11.65-14.85 14.05-14.85L14.05-14.85Q13.95-16.5 13.08-17.48 12.2-18.45 10.88-18.95 9.55-19.45 8.05-19.63 6.55-19.8 5.1-19.85L5.1-19.85ZM14.05-3.35L14.05-11.85Q12.85-11.85 11.3-11.7 9.75-11.55 8.3-11.08 6.85-10.6 5.9-9.6 4.95-8.6 4.95-6.9L4.95-6.9Q4.95-5.75 5.3-4.98 5.65-4.2 6.1-3.8L6.1-3.8Q6.9-3 7.93-2.75 8.95-2.5 9.95-2.5L9.95-2.5Q11.15-2.5 12.15-2.75 13.15-3 14.05-3.35L14.05-3.35ZM23.35-18.25L22.2-20.7Q23.5-21.5 25.65-22.25 27.8-23 30.8-23L30.8-23Q32.1-23 33.57-22.73 35.05-22.45 36.4-21.63 37.75-20.8 38.6-19.05L38.6-19.05Q38.95-18.3 39.12-17.25 39.3-16.2 39.4-14.53 39.5-12.85 39.5-10.15L39.5-10.15 39.5 0 36.3 0 36.3-10.25Q36.3-13.55 36.12-15.28 35.95-17 35.35-17.95L35.35-17.95Q34.9-18.65 33.82-19.33 32.75-20 30.6-20L30.6-20Q29.4-20 28.4-19.8 27.4-19.6 26.55-19.25L26.55-19.25 26.55 0 23.35 0 23.35-18.25ZM47.35-19.85L47.6-23Q49.7-23 51.8-22.63 53.9-22.25 55.65-21.33 57.4-20.4 58.45-18.68 59.5-16.95 59.5-14.25L59.5-14.25 59.5-4.25 60.85-1.95Q58.55-0.65 56.27-0.08 54 0.5 52.1 0.5L52.1 0.5Q49.65 0.5 48.15-0.13 46.65-0.75 45.8-1.55L45.8-1.55Q45-2.4 44.4-3.68 43.8-4.95 43.8-6.55L43.8-6.55Q43.8-9.05 44.85-10.68 45.9-12.3 47.67-13.2 49.45-14.1 51.67-14.48 53.9-14.85 56.3-14.85L56.3-14.85Q56.2-16.5 55.32-17.48 54.45-18.45 53.12-18.95 51.8-19.45 50.3-19.63 48.8-19.8 47.35-19.85L47.35-19.85ZM56.3-3.35L56.3-11.85Q55.1-11.85 53.55-11.7 52-11.55 50.55-11.08 49.1-10.6 48.15-9.6 47.2-8.6 47.2-6.9L47.2-6.9Q47.2-5.75 47.55-4.98 47.9-4.2 48.35-3.8L48.35-3.8Q49.15-3 50.17-2.75 51.2-2.5 52.2-2.5L52.2-2.5Q53.4-2.5 54.4-2.75 55.4-3 56.3-3.35L56.3-3.35ZM64.29-32.75L68.49-32.75 68.49-12.95Q68.49-10.2 68.77-8.33 69.04-6.45 70.09-5 71.14-3.55 73.44-2.15L73.44-2.15 71.79 0.5Q69.04-0.95 67.64-2.78 66.24-4.6 65.77-7.05 65.29-9.5 65.29-12.95L65.29-12.95 65.29-29.6 64.29-32.75ZM76.54-30.8L80.09-30.8 80.09-27.05 76.54-27.05 76.54-30.8ZM75.69-22.5L79.89-22.5 79.89 0 76.74 0 76.74-19.35 75.69-22.5ZM99.04-22.5L89.29-3.1 99.04-3.1 99.04 0 84.19 0 93.89-19.4 85.24-19.4 85.24-22.5 99.04-22.5ZM105.84-19.85L106.09-23Q108.19-23 110.29-22.63 112.39-22.25 114.14-21.33 115.89-20.4 116.94-18.68 117.99-16.95 117.99-14.25L117.99-14.25 117.99-4.25 119.34-1.95Q117.04-0.65 114.76-0.08 112.49 0.5 110.59 0.5L110.59 0.5Q108.14 0.5 106.64-0.13 105.14-0.75 104.29-1.55L104.29-1.55Q103.49-2.4 102.89-3.68 102.29-4.95 102.29-6.55L102.29-6.55Q102.29-9.05 103.34-10.68 104.39-12.3 106.16-13.2 107.94-14.1 110.16-14.48 112.39-14.85 114.79-14.85L114.79-14.85Q114.69-16.5 113.81-17.48 112.94-18.45 111.61-18.95 110.29-19.45 108.79-19.63 107.29-19.8 105.84-19.85L105.84-19.85ZM114.79-3.35L114.79-11.85Q113.59-11.85 112.04-11.7 110.49-11.55 109.04-11.08 107.59-10.6 106.64-9.6 105.69-8.6 105.69-6.9L105.69-6.9Q105.69-5.75 106.04-4.98 106.39-4.2 106.84-3.8L106.84-3.8Q107.64-3 108.66-2.75 109.69-2.5 110.69-2.5L110.69-2.5Q111.89-2.5 112.89-2.75 113.89-3 114.79-3.35L114.79-3.35Z" opacity="1" transform="matrix(1,0,0,1,0,0)" fill="#252422" class="wordmark-text-0" data-fill-palette-color="primary" id="text-0"></path></svg></g></svg></g><g transform="matrix(1,0,0,1,75.54432,137.9939297032258)"><svg viewBox="0 0 244.43135999999998 24.22842288680375" height="24.22842288680375" width="244.43135999999998"><g transform="matrix(1,0,0,1,0,0)"><svg width="244.43135999999998" viewBox="2 -36.5 500.84 49.65" height="24.22842288680375" data-palette-color="#252422"><path d="M9.65-23L9.65-23Q12.75-23 14.48-22.38 16.2-21.75 16.2-21.75L16.2-21.75Q16.2-20.65 16.25-19.25 16.3-17.85 16.5-16.8L16.5-16.8 15.2-16.35Q14.55-19 13.35-19.95 12.15-20.9 10.25-20.9L10.25-20.9Q8.55-20.9 7.53-19.95 6.5-19 6.5-17.7L6.5-17.7Q6.5-16.8 7.05-15.83 7.6-14.85 9.1-14L9.1-14 14.2-11.2Q15.75-10.35 16.63-9.05 17.5-7.75 17.5-5.85L17.5-5.85Q17.5-4.35 16.7-2.9 15.9-1.45 14.13-0.5 12.35 0.45 9.5 0.45L9.5 0.45Q8 0.45 6.08 0.15 4.15-0.15 2-0.8L2-0.8Q2.15-1.55 2.27-2.63 2.4-3.7 2.5-4.78 2.6-5.85 2.6-6.55L2.6-6.55 3.9-7Q4.35-5.25 4.8-3.98 5.25-2.7 6.23-2.05 7.2-1.4 9.2-1.4L9.2-1.4Q11.35-1.4 12.45-2.45 13.55-3.5 13.55-4.8L13.55-4.8Q13.55-5.75 12.98-6.65 12.4-7.55 11.2-8.2L11.2-8.2 5.8-11.2Q4.1-12.1 3.3-13.55 2.5-15 2.5-16.55L2.5-16.55Q2.5-18.15 3.33-19.63 4.15-21.1 5.75-22.05 7.35-23 9.65-23ZM27.15-22.95L27.15-22.95 28.1-22.5Q28.1-21.85 28.07-20.5 28.05-19.15 28.05-17.53 28.05-15.9 28.02-14.28 28-12.65 28-11.45L28-11.45Q28-7.8 28.12-5.85 28.25-3.9 28.37-3.15 28.5-2.4 28.5-2.4L28.5-2.4Q28.55-2.15 29.22-1.9 29.9-1.65 30.72-1.5 31.55-1.35 32.05-1.3L32.05-1.3 31.9 0.15Q30.7 0.05 29.07 0.03 27.45 0 26.15 0L26.15 0Q24.9 0 23.15 0.03 21.4 0.05 20.2 0.15L20.2 0.15 20.35-1.3Q20.9-1.35 21.7-1.5 22.5-1.65 23.15-1.9 23.8-2.15 23.85-2.4L23.85-2.4Q23.85-2.4 23.95-3.15 24.05-3.9 24.15-5.85 24.25-7.8 24.25-11.45L24.25-11.45Q24.25-15.1 24.15-16.88 24.05-18.65 23.95-19.23 23.85-19.8 23.85-19.8L23.85-19.8 20.65-20.75 20.55-22.05Q21.45-22.05 22.67-22.18 23.9-22.3 25.1-22.53 26.3-22.75 27.15-22.95ZM26-28.15L26-28.15Q24.9-28.15 24.15-28.93 23.4-29.7 23.4-30.85L23.4-30.85Q23.4-31.95 24.15-32.7 24.9-33.45 26-33.45L26-33.45Q27.1-33.45 27.85-32.7 28.6-31.95 28.6-30.85L28.6-30.85Q28.6-29.7 27.85-28.93 27.1-28.15 26-28.15ZM73.9-1.3L73.9-1.3 73.75 0.15Q72.55 0.05 71.09 0.03 69.65 0 68.34 0L68.34 0Q67.09 0 65.52 0.03 63.95 0.05 62.75 0.15L62.75 0.15 62.89-1.3Q63.45-1.35 64.14-1.5 64.84-1.65 65.42-1.9 66-2.15 66.05-2.4L66.05-2.4Q66.05-2.4 66.15-3.15 66.25-3.9 66.34-5.85 66.44-7.8 66.44-11.45L66.44-11.45 66.44-16.7Q66.44-18.55 65.37-19.23 64.3-19.9 62.7-19.9L62.7-19.9Q60.95-19.9 59-19.3 57.05-18.7 55.8-18.2L55.8-18.2 55.8-11.45Q55.8-7.8 55.92-5.85 56.05-3.9 56.17-3.15 56.3-2.4 56.3-2.4L56.3-2.4Q56.34-2.15 56.92-1.9 57.5-1.65 58.25-1.5 59-1.35 59.5-1.3L59.5-1.3 59.34 0.15Q58.14 0.05 56.7 0.03 55.25 0 53.95 0L53.95 0Q52.7 0 51.12 0.03 49.55 0.05 48.34 0.15L48.34 0.15 48.49-1.3Q49.05-1.35 49.75-1.5 50.45-1.65 51.02-1.9 51.59-2.15 51.64-2.4L51.64-2.4Q51.64-2.4 51.75-3.15 51.84-3.9 51.95-5.85 52.05-7.8 52.05-11.45L52.05-11.45 52.05-16.7Q52.05-18.55 50.97-19.23 49.89-19.9 48.3-19.9L48.3-19.9Q47.14-19.9 45.82-19.58 44.49-19.25 43.34-18.85 42.2-18.45 41.45-18.1L41.45-18.1 41.45-11.45Q41.45-7.8 41.59-5.85 41.74-3.9 41.87-3.15 41.99-2.4 41.99-2.4L41.99-2.4Q42.05-2.15 42.62-1.9 43.2-1.65 43.95-1.5 44.7-1.35 45.2-1.3L45.2-1.3 45.05 0.15Q43.84 0.05 42.39 0.03 40.95 0 39.64 0L39.64 0Q38.39 0 36.82 0.03 35.24 0.05 34.05 0.15L34.05 0.15 34.2-1.3Q34.74-1.35 35.45-1.5 36.14-1.65 36.72-1.9 37.3-2.15 37.34-2.4L37.34-2.4Q37.34-2.4 37.45-3.15 37.55-3.9 37.62-5.85 37.7-7.8 37.7-11.45L37.7-11.45Q37.7-15.1 37.59-16.88 37.49-18.65 37.39-19.23 37.3-19.8 37.3-19.8L37.3-19.8 34.09-20.75 33.99-22.05Q34.89-22.05 36.12-22.18 37.34-22.3 38.55-22.53 39.74-22.75 40.59-22.95L40.59-22.95 41.55-22.5Q41.55-22.5 41.52-21.73 41.49-20.95 41.49-20.1L41.49-20.1Q42.49-20.7 44.05-21.38 45.59-22.05 47.34-22.53 49.09-23 50.7-23L50.7-23Q52.39-23 53.72-22.35 55.05-21.7 55.55-20.1L55.55-20.1Q56.55-20.7 58.17-21.38 59.8-22.05 61.62-22.53 63.45-23 65.09-23L65.09-23Q67.25-23 68.72-21.98 70.19-20.95 70.19-18.25L70.19-18.25 70.19-11.45Q70.19-7.8 70.32-5.85 70.44-3.9 70.57-3.15 70.69-2.4 70.69-2.4L70.69-2.4Q70.75-2.15 71.32-1.9 71.9-1.65 72.65-1.5 73.4-1.35 73.9-1.3ZM82.94-1.15L82.94-1.15Q82.99 3.55 83.04 6.1 83.09 8.65 83.17 9.65 83.24 10.65 83.24 10.75L83.24 10.75Q83.29 11 83.94 11.2 84.59 11.4 85.42 11.53 86.24 11.65 86.74 11.7L86.74 11.7 86.59 13.15Q85.39 13.05 83.79 13.03 82.19 13 80.89 13L80.89 13Q79.64 13 77.92 13.03 76.19 13.05 74.99 13.15L74.99 13.15 75.14 11.7Q75.69 11.65 76.47 11.53 77.24 11.4 77.89 11.2 78.54 11 78.59 10.75L78.59 10.75Q78.59 10.75 78.69 10.1 78.79 9.45 78.89 7.75 78.99 6.05 79.09 2.98 79.19-0.1 79.19-4.9L79.19-4.9Q79.19-9.75 79.14-12.7 79.09-15.65 78.99-17.2 78.89-18.75 78.84-19.28 78.79-19.8 78.79-19.8L78.79-19.8 75.59-20.75 75.49-22.05Q76.84-22.05 78.82-22.33 80.79-22.6 82.04-22.95L82.04-22.95 82.99-22.5 82.99-20.05Q84.89-21.5 87.02-22.25 89.14-23 91.14-23L91.14-23Q93.54-23 95.54-21.88 97.54-20.75 98.77-18.38 99.99-16 99.99-12.15L99.99-12.15Q99.99-7.85 98.54-5.05 97.09-2.25 94.64-0.9 92.19 0.45 89.14 0.45L89.14 0.45Q87.59 0.45 86.02 0.05 84.44-0.35 82.94-1.15ZM82.94-18.3L82.94-18.3 82.94-3.05Q84.24-2.6 85.39-2.4 86.54-2.2 87.54-2.2L87.54-2.2Q90.69-2.2 92.47-3.63 94.24-5.05 94.99-7.28 95.74-9.5 95.74-11.85L95.74-11.85Q95.74-15.4 94.29-17.63 92.84-19.85 89.14-19.85L89.14-19.85Q87.39-19.85 85.59-19.35 83.79-18.85 82.94-18.3ZM110.69-17.6L110.69-17.6Q110.69-13.1 110.77-10.25 110.84-7.4 110.94-5.75 111.04-4.1 111.12-3.38 111.19-2.65 111.24-2.4L111.24-2.4Q111.29-2.15 111.94-1.9 112.59-1.65 113.42-1.5 114.24-1.35 114.74-1.3L114.74-1.3 114.59 0.15Q113.39 0.05 111.79 0.03 110.19 0 108.89 0L108.89 0Q107.64 0 105.92 0.03 104.19 0.05 102.99 0.15L102.99 0.15 103.14-1.3Q103.69-1.35 104.47-1.5 105.24-1.65 105.89-1.9 106.54-2.15 106.59-2.4L106.59-2.4Q106.59-2.4 106.64-3.13 106.69-3.85 106.77-5.63 106.84-7.4 106.89-10.53 106.94-13.65 106.94-18.5L106.94-18.5Q106.94-23.3 106.89-26.25 106.84-29.2 106.74-30.75 106.64-32.3 106.59-32.83 106.54-33.35 106.54-33.35L106.54-33.35 103.34-34.3 103.24-35.6Q104.14-35.6 105.37-35.73 106.59-35.85 107.79-36.08 108.99-36.3 109.84-36.5L109.84-36.5 110.79-36.05Q110.79-36.05 110.74-31.4 110.69-26.75 110.69-17.6ZM135.79-4.15L135.79-4.15 136.39-2.65Q134.84-1.4 132.76-0.48 130.69 0.45 128.19 0.45L128.19 0.45Q124.49 0.45 122.11-1.03 119.74-2.5 118.61-4.95 117.49-7.4 117.49-10.35L117.49-10.35Q117.49-12.75 118.16-15 118.84-17.25 120.24-19.05 121.64-20.85 123.94-21.93 126.24-23 129.44-23L129.44-23Q131.24-23 132.99-22.15 134.74-21.3 135.89-19.43 137.04-17.55 137.04-14.45L137.04-14.45 135.34-12.4Q135.14-12.45 134.66-12.45 134.19-12.45 133.49-12.45L133.49-12.45Q132.24-12.45 130.54-12.43 128.84-12.4 127.09-12.35 125.34-12.3 123.89-12.23 122.44-12.15 121.74-12.1L121.74-12.1 121.74-11.65Q121.74-6.95 123.71-4.75 125.69-2.55 128.84-2.55L128.84-2.55Q130.69-2.55 132.34-2.95 133.99-3.35 135.79-4.15ZM132.54-16L132.54-16Q132.54-17.7 131.86-18.68 131.19-19.65 130.21-20.1 129.24-20.55 128.34-20.55L128.34-20.55Q125.89-20.55 124.24-18.63 122.59-16.7 122.04-14.15L122.04-14.15 132.39-14.55Q132.54-15.3 132.54-16ZM181.28-19.8L181.28-19.8Q181.28-20.35 180.43-20.75 179.58-21.15 178.13-21.35L178.13-21.35 177.98-22.8Q177.98-22.8 179.28-22.73 180.58-22.65 181.98-22.65L181.98-22.65Q182.93-22.65 184.11-22.7 185.28-22.75 186.18-22.78 187.08-22.8 187.08-22.8L187.08-22.8 187.23-21.35Q185.63-21.15 184.96-20.68 184.28-20.2 184.08-19.5L184.08-19.5 178.53 0 174.58 0.45 169.08-13.95 163.93 0 160.03 0.45 154.43-19.3Q154.28-19.85 153.66-20.48 153.03-21.1 151.38-21.35L151.38-21.35 151.23-22.8Q151.23-22.8 152.13-22.78 153.03-22.75 154.23-22.7 155.43-22.65 156.33-22.65L156.33-22.65Q157.28-22.65 158.61-22.7 159.93-22.75 160.93-22.78 161.93-22.8 161.93-22.8L161.93-22.8 162.08-21.35Q160.18-21.1 159.46-20.58 158.73-20.05 158.73-19.65L158.73-19.65Q158.73-19.55 159.01-18.35 159.28-17.15 159.73-15.33 160.18-13.5 160.71-11.35 161.23-9.2 161.76-7.08 162.28-4.95 162.68-3.3L162.68-3.3 169.48-22.5 170.58-22.5 177.18-3.3Q177.58-5 178.11-7.1 178.63-9.2 179.21-11.35 179.78-13.5 180.23-15.38 180.68-17.25 180.98-18.45 181.28-19.65 181.28-19.8ZM207.48-4.15L207.48-4.15 208.08-2.65Q206.53-1.4 204.46-0.48 202.38 0.45 199.88 0.45L199.88 0.45Q196.18 0.45 193.81-1.03 191.43-2.5 190.31-4.95 189.18-7.4 189.18-10.35L189.18-10.35Q189.18-12.75 189.86-15 190.53-17.25 191.93-19.05 193.33-20.85 195.63-21.93 197.93-23 201.13-23L201.13-23Q202.93-23 204.68-22.15 206.43-21.3 207.58-19.43 208.73-17.55 208.73-14.45L208.73-14.45 207.03-12.4Q206.83-12.45 206.36-12.45 205.88-12.45 205.18-12.45L205.18-12.45Q203.93-12.45 202.23-12.43 200.53-12.4 198.78-12.35 197.03-12.3 195.58-12.23 194.13-12.15 193.43-12.1L193.43-12.1 193.43-11.65Q193.43-6.95 195.41-4.75 197.38-2.55 200.53-2.55L200.53-2.55Q202.38-2.55 204.03-2.95 205.68-3.35 207.48-4.15ZM204.23-16L204.23-16Q204.23-17.7 203.56-18.68 202.88-19.65 201.91-20.1 200.93-20.55 200.03-20.55L200.03-20.55Q197.58-20.55 195.93-18.63 194.28-16.7 193.73-14.15L193.73-14.15 204.08-14.55Q204.23-15.3 204.23-16ZM223.53 0.45L223.53 0.45Q220.78 0.45 218.28-0.05 215.78-0.55 213.98-1.25L213.98-1.25Q213.98-1.25 214.08-2.88 214.18-4.5 214.28-8.25 214.38-12 214.38-18.45L214.38-18.45Q214.38-23.3 214.33-26.25 214.28-29.2 214.18-30.75 214.08-32.3 214.03-32.83 213.98-33.35 213.98-33.35L213.98-33.35 210.78-34.3 210.68-35.6Q211.58-35.6 212.8-35.73 214.03-35.85 215.23-36.08 216.43-36.3 217.28-36.5L217.28-36.5 218.23-36.05Q218.23-36.05 218.18-31.98 218.13-27.9 218.13-20.1L218.13-20.1Q220.03-21.55 222.13-22.28 224.23-23 226.23-23L226.23-23Q228.58-23 230.58-21.88 232.58-20.75 233.8-18.38 235.03-16 235.03-12.15L235.03-12.15Q235.03-7.85 233.4-5.05 231.78-2.25 229.15-0.9 226.53 0.45 223.53 0.45ZM222.68-2.2L222.68-2.2Q225.78-2.2 227.53-3.63 229.28-5.05 230.03-7.28 230.78-9.5 230.78-11.85L230.78-11.85Q230.78-15.4 229.38-17.63 227.98-19.85 224.28-19.85L224.28-19.85Q222.53-19.85 220.73-19.35 218.93-18.85 218.08-18.3L218.08-18.3Q218.08-13 218.15-9.8 218.23-6.6 218.33-5.03 218.43-3.45 218.48-3.05L218.48-3.05Q219.63-2.6 220.68-2.4 221.73-2.2 222.68-2.2ZM246.73-23L246.73-23Q249.83-23 251.55-22.38 253.28-21.75 253.28-21.75L253.28-21.75Q253.28-20.65 253.33-19.25 253.38-17.85 253.58-16.8L253.58-16.8 252.28-16.35Q251.63-19 250.43-19.95 249.23-20.9 247.33-20.9L247.33-20.9Q245.63-20.9 244.6-19.95 243.58-19 243.58-17.7L243.58-17.7Q243.58-16.8 244.13-15.83 244.68-14.85 246.18-14L246.18-14 251.28-11.2Q252.83-10.35 253.7-9.05 254.58-7.75 254.58-5.85L254.58-5.85Q254.58-4.35 253.78-2.9 252.98-1.45 251.2-0.5 249.43 0.45 246.58 0.45L246.58 0.45Q245.08 0.45 243.15 0.15 241.23-0.15 239.08-0.8L239.08-0.8Q239.23-1.55 239.35-2.63 239.48-3.7 239.58-4.78 239.68-5.85 239.68-6.55L239.68-6.55 240.98-7Q241.43-5.25 241.88-3.98 242.33-2.7 243.3-2.05 244.28-1.4 246.28-1.4L246.28-1.4Q248.43-1.4 249.53-2.45 250.63-3.5 250.63-4.8L250.63-4.8Q250.63-5.75 250.05-6.65 249.48-7.55 248.28-8.2L248.28-8.2 242.88-11.2Q241.18-12.1 240.38-13.55 239.58-15 239.58-16.55L239.58-16.55Q239.58-18.15 240.4-19.63 241.23-21.1 242.83-22.05 244.43-23 246.73-23ZM264.22-22.95L264.22-22.95 265.17-22.5Q265.17-21.85 265.15-20.5 265.12-19.15 265.12-17.53 265.12-15.9 265.1-14.28 265.07-12.65 265.07-11.45L265.07-11.45Q265.07-7.8 265.2-5.85 265.32-3.9 265.45-3.15 265.57-2.4 265.57-2.4L265.57-2.4Q265.62-2.15 266.3-1.9 266.97-1.65 267.8-1.5 268.62-1.35 269.12-1.3L269.12-1.3 268.97 0.15Q267.77 0.05 266.15 0.03 264.52 0 263.22 0L263.22 0Q261.97 0 260.22 0.03 258.47 0.05 257.27 0.15L257.27 0.15 257.42-1.3Q257.97-1.35 258.77-1.5 259.57-1.65 260.22-1.9 260.87-2.15 260.92-2.4L260.92-2.4Q260.92-2.4 261.02-3.15 261.12-3.9 261.22-5.85 261.32-7.8 261.32-11.45L261.32-11.45Q261.32-15.1 261.22-16.88 261.12-18.65 261.02-19.23 260.92-19.8 260.92-19.8L260.92-19.8 257.72-20.75 257.62-22.05Q258.52-22.05 259.75-22.18 260.97-22.3 262.17-22.53 263.37-22.75 264.22-22.95ZM263.07-28.15L263.07-28.15Q261.97-28.15 261.22-28.93 260.47-29.7 260.47-30.85L260.47-30.85Q260.47-31.95 261.22-32.7 261.97-33.45 263.07-33.45L263.07-33.45Q264.17-33.45 264.92-32.7 265.67-31.95 265.67-30.85L265.67-30.85Q265.67-29.7 264.92-28.93 264.17-28.15 263.07-28.15ZM285.47-3.55L285.47-3.55 286.07-1.9Q284.37-0.8 282.82-0.18 281.27 0.45 279.67 0.45L279.67 0.45Q277.52 0.45 276-0.6 274.47-1.65 274.47-4.55L274.47-4.55Q274.47-4.55 274.5-5.78 274.52-7 274.52-8.78 274.52-10.55 274.52-12.15L274.52-12.15Q274.52-14.65 274.5-16.73 274.47-18.8 274.42-20.3L274.42-20.3Q272.92-20.25 272.07-20.25 271.22-20.25 271.22-20.25L271.22-20.25 271.07-20.8 272.22-22.75Q272.22-22.75 272.75-22.68 273.27-22.6 274.32-22.55L274.32-22.55Q274.32-23.55 274.27-24.63 274.22-25.7 274.17-26.43 274.12-27.15 274.12-27.15L274.12-27.15 277.42-30.1 278.37-29.65Q278.37-29.65 278.35-28.58 278.32-27.5 278.3-25.9 278.27-24.3 278.27-22.6L278.27-22.6Q281.67-22.6 283.65-22.63 285.62-22.65 285.62-22.65L285.62-22.65 285.87-22.05 284.07-20.05Q284.07-20.05 282.72-20.15 281.37-20.25 278.27-20.3L278.27-20.3 278.27-13.6Q278.27-10.6 278.3-8.65 278.32-6.7 278.42-4.65L278.42-4.65Q278.52-3.4 279.27-2.9 280.02-2.4 281.07-2.4L281.07-2.4Q282.22-2.4 283.45-2.8 284.67-3.2 285.47-3.55ZM306.42-4.15L306.42-4.15 307.02-2.65Q305.47-1.4 303.39-0.48 301.32 0.45 298.82 0.45L298.82 0.45Q295.12 0.45 292.74-1.03 290.37-2.5 289.24-4.95 288.12-7.4 288.12-10.35L288.12-10.35Q288.12-12.75 288.79-15 289.47-17.25 290.87-19.05 292.27-20.85 294.57-21.93 296.87-23 300.07-23L300.07-23Q301.87-23 303.62-22.15 305.37-21.3 306.52-19.43 307.67-17.55 307.67-14.45L307.67-14.45 305.97-12.4Q305.77-12.45 305.29-12.45 304.82-12.45 304.12-12.45L304.12-12.45Q302.87-12.45 301.17-12.43 299.47-12.4 297.72-12.35 295.97-12.3 294.52-12.23 293.07-12.15 292.37-12.1L292.37-12.1 292.37-11.65Q292.37-6.95 294.34-4.75 296.32-2.55 299.47-2.55L299.47-2.55Q301.32-2.55 302.97-2.95 304.62-3.35 306.42-4.15ZM303.17-16L303.17-16Q303.17-17.7 302.49-18.68 301.82-19.65 300.84-20.1 299.87-20.55 298.97-20.55L298.97-20.55Q296.52-20.55 294.87-18.63 293.22-16.7 292.67-14.15L292.67-14.15 303.02-14.55Q303.17-15.3 303.17-16ZM343.56-2.6L343.56-2.6 344.06-1.3Q342.16 0.45 339.91 0.45L339.91 0.45Q338.66 0.45 337.66-0.33 336.66-1.1 336.41-2.8L336.41-2.8Q334.56-1.4 332.74-0.48 330.91 0.45 328.81 0.45L328.81 0.45Q326.81 0.45 325.24-0.8 323.66-2.05 323.66-4.75L323.66-4.75Q323.66-6.55 324.81-8.28 325.96-10 328.74-11.23 331.51-12.45 336.26-12.75L336.26-12.75 336.26-17.4Q336.26-18.85 335.19-19.58 334.11-20.3 332.61-20.3L332.61-20.3Q330.41-20.3 329.36-19.25 328.31-18.2 328.31-16.65L328.31-16.65Q328.31-16.05 328.46-15.3L328.46-15.3 327.36-14.8Q326.31-15.35 325.46-16.32 324.61-17.3 324.61-17.7L324.61-17.7Q324.61-18.05 325.24-18.9 325.86-19.75 327.11-20.7 328.36-21.65 330.16-22.33 331.96-23 334.31-23L334.31-23Q335.86-23 337.14-22.55 338.41-22.1 339.16-20.95 339.91-19.8 339.91-17.65L339.91-17.65Q339.91-17.15 339.94-15.85 339.96-14.55 340.01-12.85 340.06-11.15 340.09-9.43 340.11-7.7 340.16-6.4 340.21-5.1 340.21-4.6L340.21-4.6Q340.26-3.25 340.79-2.73 341.31-2.2 342.01-2.2L342.01-2.2Q342.31-2.2 342.71-2.3 343.11-2.4 343.56-2.6ZM336.26-4.7L336.26-4.7 336.26-10.5Q331.86-10.4 329.86-8.85 327.86-7.3 327.86-5.55L327.86-5.55Q327.86-4.05 328.76-3.3 329.66-2.55 331.11-2.55L331.11-2.55Q332.21-2.55 333.54-3.08 334.86-3.6 336.26-4.7ZM352.31-22.95L352.31-22.95 353.26-22.5 353.26-20.1Q354.31-20.7 355.91-21.38 357.51-22.05 359.36-22.53 361.21-23 362.91-23L362.91-23Q365.06-23 366.54-21.98 368.01-20.95 368.01-18.25L368.01-18.25 368.01-11.45Q368.01-7.8 368.14-5.85 368.26-3.9 368.39-3.15 368.51-2.4 368.51-2.4L368.51-2.4Q368.56-2.15 369.14-1.9 369.71-1.65 370.46-1.5 371.21-1.35 371.71-1.3L371.71-1.3 371.56 0.15Q370.36 0.05 368.91 0.03 367.46 0 366.16 0L366.16 0Q364.91 0 363.34 0.03 361.76 0.05 360.56 0.15L360.56 0.15 360.71-1.3Q361.26-1.35 361.96-1.5 362.66-1.65 363.24-1.9 363.81-2.15 363.86-2.4L363.86-2.4Q363.86-2.4 363.96-3.15 364.06-3.9 364.16-5.85 364.26-7.8 364.26-11.45L364.26-11.45 364.26-16.7Q364.26-18.55 363.19-19.23 362.11-19.9 360.51-19.9L360.51-19.9Q359.26-19.9 357.89-19.58 356.51-19.25 355.26-18.85 354.01-18.45 353.21-18.1L353.21-18.1Q353.21-16.85 353.19-15.25 353.16-13.65 353.16-11.45L353.16-11.45Q353.16-7.8 353.29-5.85 353.41-3.9 353.54-3.15 353.66-2.4 353.66-2.4L353.66-2.4Q353.71-2.15 354.29-1.9 354.86-1.65 355.61-1.5 356.36-1.35 356.86-1.3L356.86-1.3 356.71 0.15Q355.51 0.05 354.06 0.03 352.61 0 351.31 0L351.31 0Q350.06 0 348.49 0.03 346.91 0.05 345.71 0.15L345.71 0.15 345.86-1.3Q346.41-1.35 347.11-1.5 347.81-1.65 348.39-1.9 348.96-2.15 349.01-2.4L349.01-2.4Q349.01-2.4 349.11-3.15 349.21-3.9 349.31-5.85 349.41-7.8 349.41-11.45L349.41-11.45Q349.41-15.1 349.31-16.88 349.21-18.65 349.11-19.23 349.01-19.8 349.01-19.8L349.01-19.8 345.81-20.75 345.71-22.05Q346.61-22.05 347.84-22.18 349.06-22.3 350.26-22.53 351.46-22.75 352.31-22.95ZM394.41-2.6L394.41-2.6 394.91-1.3Q393.01 0.45 390.76 0.45L390.76 0.45Q389.51 0.45 388.51-0.33 387.51-1.1 387.26-2.8L387.26-2.8Q385.41-1.4 383.58-0.48 381.76 0.45 379.66 0.45L379.66 0.45Q377.66 0.45 376.08-0.8 374.51-2.05 374.51-4.75L374.51-4.75Q374.51-6.55 375.66-8.28 376.81-10 379.58-11.23 382.36-12.45 387.11-12.75L387.11-12.75 387.11-17.4Q387.11-18.85 386.03-19.58 384.96-20.3 383.46-20.3L383.46-20.3Q381.26-20.3 380.21-19.25 379.16-18.2 379.16-16.65L379.16-16.65Q379.16-16.05 379.31-15.3L379.31-15.3 378.21-14.8Q377.16-15.35 376.31-16.32 375.46-17.3 375.46-17.7L375.46-17.7Q375.46-18.05 376.08-18.9 376.71-19.75 377.96-20.7 379.21-21.65 381.01-22.33 382.81-23 385.16-23L385.16-23Q386.71-23 387.98-22.55 389.26-22.1 390.01-20.95 390.76-19.8 390.76-17.65L390.76-17.65Q390.76-17.15 390.78-15.85 390.81-14.55 390.86-12.85 390.91-11.15 390.93-9.43 390.96-7.7 391.01-6.4 391.06-5.1 391.06-4.6L391.06-4.6Q391.11-3.25 391.63-2.73 392.16-2.2 392.86-2.2L392.86-2.2Q393.16-2.2 393.56-2.3 393.96-2.4 394.41-2.6ZM387.11-4.7L387.11-4.7 387.11-10.5Q382.71-10.4 380.71-8.85 378.71-7.3 378.71-5.55L378.71-5.55Q378.71-4.05 379.61-3.3 380.51-2.55 381.96-2.55L381.96-2.55Q383.06-2.55 384.38-3.08 385.71-3.6 387.11-4.7ZM404.06-17.6L404.06-17.6Q404.06-13.1 404.13-10.25 404.21-7.4 404.31-5.75 404.41-4.1 404.48-3.38 404.56-2.65 404.61-2.4L404.61-2.4Q404.66-2.15 405.31-1.9 405.96-1.65 406.78-1.5 407.61-1.35 408.11-1.3L408.11-1.3 407.96 0.15Q406.76 0.05 405.16 0.03 403.56 0 402.26 0L402.26 0Q401.01 0 399.28 0.03 397.56 0.05 396.36 0.15L396.36 0.15 396.51-1.3Q397.06-1.35 397.83-1.5 398.61-1.65 399.26-1.9 399.91-2.15 399.96-2.4L399.96-2.4Q399.96-2.4 400.01-3.13 400.06-3.85 400.13-5.63 400.21-7.4 400.26-10.53 400.31-13.65 400.31-18.5L400.31-18.5Q400.31-23.3 400.26-26.25 400.21-29.2 400.11-30.75 400.01-32.3 399.96-32.83 399.91-33.35 399.91-33.35L399.91-33.35 396.71-34.3 396.61-35.6Q397.51-35.6 398.73-35.73 399.96-35.85 401.16-36.08 402.36-36.3 403.21-36.5L403.21-36.5 404.16-36.05Q404.16-36.05 404.11-31.4 404.06-26.75 404.06-17.6ZM420.4 0L420.4 0 418.65-1.05 412.15-19.3Q411.95-19.85 411.35-20.48 410.75-21.1 409.1-21.35L409.1-21.35 408.95-22.8Q408.95-22.8 409.85-22.78 410.75-22.75 411.95-22.7 413.15-22.65 414.05-22.65L414.05-22.65Q415-22.65 416.15-22.7 417.3-22.75 418.13-22.78 418.95-22.8 418.95-22.8L418.95-22.8 419.1-21.35Q417.45-21.15 416.78-20.7 416.1-20.25 416.1-19.85L416.1-19.85Q416.1-19.65 417.55-15.43 419-11.2 421.6-3.2L421.6-3.2Q424.4-11.1 425.8-15.28 427.2-19.45 427.2-19.9L427.2-19.9Q427.2-21 424.45-21.35L424.45-21.35 424.3-22.8Q424.3-22.8 425.4-22.73 426.5-22.65 427.9-22.65L427.9-22.65Q428.8-22.65 430-22.7 431.2-22.75 432.1-22.78 433-22.8 433-22.8L433-22.8 433.15-21.35Q431.6-21.15 430.98-20.78 430.35-20.4 430.13-19.7 429.9-19 429.4-17.7L429.4-17.7 422.75 0Q420.95 4.8 419.35 7.5 417.75 10.2 416.48 11.4 415.2 12.6 414.25 12.88 413.3 13.15 412.75 13.15L412.75 13.15Q412.5 13.15 411.98 12.63 411.45 12.1 410.95 11.28 410.45 10.45 410.2 9.65L410.2 9.65 410.95 8.7Q411.9 9.15 413.2 9.15L413.2 9.15Q414 9.15 415.1 8.45 416.2 7.75 417.55 5.78 418.9 3.8 420.4 0ZM448.65-3.55L448.65-3.55 449.25-1.9Q447.55-0.8 446-0.18 444.45 0.45 442.85 0.45L442.85 0.45Q440.7 0.45 439.18-0.6 437.65-1.65 437.65-4.55L437.65-4.55Q437.65-4.55 437.68-5.78 437.7-7 437.7-8.78 437.7-10.55 437.7-12.15L437.7-12.15Q437.7-14.65 437.68-16.73 437.65-18.8 437.6-20.3L437.6-20.3Q436.1-20.25 435.25-20.25 434.4-20.25 434.4-20.25L434.4-20.25 434.25-20.8 435.4-22.75Q435.4-22.75 435.93-22.68 436.45-22.6 437.5-22.55L437.5-22.55Q437.5-23.55 437.45-24.63 437.4-25.7 437.35-26.43 437.3-27.15 437.3-27.15L437.3-27.15 440.6-30.1 441.55-29.65Q441.55-29.65 441.53-28.58 441.5-27.5 441.48-25.9 441.45-24.3 441.45-22.6L441.45-22.6Q444.85-22.6 446.83-22.63 448.8-22.65 448.8-22.65L448.8-22.65 449.05-22.05 447.25-20.05Q447.25-20.05 445.9-20.15 444.55-20.25 441.45-20.3L441.45-20.3 441.45-13.6Q441.45-10.6 441.48-8.65 441.5-6.7 441.6-4.65L441.6-4.65Q441.7-3.4 442.45-2.9 443.2-2.4 444.25-2.4L444.25-2.4Q445.4-2.4 446.63-2.8 447.85-3.2 448.65-3.55ZM457.5-22.95L457.5-22.95 458.45-22.5Q458.45-21.85 458.42-20.5 458.4-19.15 458.4-17.53 458.4-15.9 458.37-14.28 458.35-12.65 458.35-11.45L458.35-11.45Q458.35-7.8 458.47-5.85 458.6-3.9 458.72-3.15 458.85-2.4 458.85-2.4L458.85-2.4Q458.9-2.15 459.57-1.9 460.25-1.65 461.07-1.5 461.9-1.35 462.4-1.3L462.4-1.3 462.25 0.15Q461.05 0.05 459.42 0.03 457.8 0 456.5 0L456.5 0Q455.25 0 453.5 0.03 451.75 0.05 450.55 0.15L450.55 0.15 450.7-1.3Q451.25-1.35 452.05-1.5 452.85-1.65 453.5-1.9 454.15-2.15 454.2-2.4L454.2-2.4Q454.2-2.4 454.3-3.15 454.4-3.9 454.5-5.85 454.6-7.8 454.6-11.45L454.6-11.45Q454.6-15.1 454.5-16.88 454.4-18.65 454.3-19.23 454.2-19.8 454.2-19.8L454.2-19.8 451-20.75 450.9-22.05Q451.8-22.05 453.02-22.18 454.25-22.3 455.45-22.53 456.65-22.75 457.5-22.95ZM456.35-28.15L456.35-28.15Q455.25-28.15 454.5-28.93 453.75-29.7 453.75-30.85L453.75-30.85Q453.75-31.95 454.5-32.7 455.25-33.45 456.35-33.45L456.35-33.45Q457.45-33.45 458.2-32.7 458.95-31.95 458.95-30.85L458.95-30.85Q458.95-29.7 458.2-28.93 457.45-28.15 456.35-28.15ZM483.65-4.5L483.65-4.5 484.25-2.85Q482.55-1.5 480.37-0.53 478.2 0.45 475.4 0.45L475.4 0.45Q471.9 0.45 469.57-1.03 467.25-2.5 466.12-5.05 465-7.6 465-10.75L465-10.75Q465-13 465.72-15.18 466.45-17.35 467.87-19.13 469.3-20.9 471.42-21.95 473.55-23 476.4-23L476.4-23Q478.55-23 480.25-22.28 481.95-21.55 482.95-20.73 483.95-19.9 483.95-19.6L483.95-19.6Q483.95-18.95 483.65-17.88 483.35-16.8 482.75-15.95L482.75-15.95 481.55-15.95Q481.25-16.8 480.55-17.8 479.85-18.8 478.7-19.55 477.55-20.3 475.85-20.3L475.85-20.3Q473.65-20.3 472.2-18.93 470.75-17.55 470.07-15.43 469.4-13.3 469.4-11.1L469.4-11.1Q469.4-6.55 471.45-4.53 473.5-2.5 476.7-2.5L476.7-2.5Q478.3-2.5 480.2-3.03 482.1-3.55 483.65-4.5ZM494.99-23L494.99-23Q498.09-23 499.82-22.38 501.54-21.75 501.54-21.75L501.54-21.75Q501.54-20.65 501.59-19.25 501.64-17.85 501.84-16.8L501.84-16.8 500.54-16.35Q499.89-19 498.69-19.95 497.49-20.9 495.59-20.9L495.59-20.9Q493.89-20.9 492.87-19.95 491.84-19 491.84-17.7L491.84-17.7Q491.84-16.8 492.39-15.83 492.94-14.85 494.44-14L494.44-14 499.54-11.2Q501.09-10.35 501.97-9.05 502.84-7.75 502.84-5.85L502.84-5.85Q502.84-4.35 502.04-2.9 501.24-1.45 499.47-0.5 497.69 0.45 494.84 0.45L494.84 0.45Q493.34 0.45 491.42 0.15 489.49-0.15 487.34-0.8L487.34-0.8Q487.49-1.55 487.62-2.63 487.74-3.7 487.84-4.78 487.94-5.85 487.94-6.55L487.94-6.55 489.24-7Q489.69-5.25 490.14-3.98 490.59-2.7 491.57-2.05 492.54-1.4 494.54-1.4L494.54-1.4Q496.69-1.4 497.79-2.45 498.89-3.5 498.89-4.8L498.89-4.8Q498.89-5.75 498.32-6.65 497.74-7.55 496.54-8.2L496.54-8.2 491.14-11.2Q489.44-12.1 488.64-13.55 487.84-15 487.84-16.55L487.84-16.55Q487.84-18.15 488.67-19.63 489.49-21.1 491.09-22.05 492.69-23 494.99-23Z" opacity="1" transform="matrix(1,0,0,1,0,0)" fill="#252422" class="slogan-text-1" data-fill-palette-color="secondary" id="text-1"></path></svg></g></svg></g></svg></g></svg></g><g transform="matrix(1,0,0,1,86.65315436028955,0)"><svg viewBox="0 0 224.19129127942082 224.19129127942082" height="224.19129127942082" width="224.19129127942082"><g><svg version="1.1" xmlns="http://www.w3.org/2000/svg" xmlns:xlink="http://www.w3.org/1999/xlink" x="0" y="0" viewBox="0 0 100 100" enable-background="new 0 0 100 100" xml:space="preserve" height="224.19129127942082" width="224.19129127942082" class="icon-icon-0" data-fill-palette-color="accent" id="icon-0"><path fill="#eb5e28" d="M50 0C22.386 0 0 22.386 0 50s22.386 50 50 50 50-22.386 50-50S77.614 0 50 0zM50 14.156c19.799 0 35.844 16.044 35.844 35.844 0 19.799-16.045 35.844-35.844 35.844-19.799 0-35.844-16.045-35.844-35.844C14.156 30.201 30.201 14.156 50 14.156zM50 20.125c-16.505 0-29.875 13.37-29.875 29.875S33.495 79.875 50 79.875 79.875 66.505 79.875 50 66.505 20.125 50 20.125zM50 29.75c11.178 0 20.25 9.072 20.25 20.25S61.178 70.25 50 70.25 29.75 61.178 29.75 50 38.822 29.75 50 29.75zM50 38.031c-6.618 0-11.969 5.35-11.969 11.969 0 6.619 5.351 11.969 11.969 11.969 6.619 0 11.969-5.35 11.969-11.969C61.969 43.381 56.619 38.031 50 38.031z" data-fill-palette-color="accent"></path></svg></g></svg></g><g></g></svg></g><defs></defs></svg><rect width="207.98834481200691" height="247.2" fill="none" stroke="none" visibility="hidden"></rect></g></svg></g></svg>